<svg id="Capa_1" data-name="Capa 1" xmlns="http://www.w3.org/2000/svg" viewBox="0 0 383.1 77.32"><defs><style>.cls-1{fill:#015697;}.cls-2{fill:none;stroke:#e3057d;stroke-width:0.52px;}.cls-3{fill:#fff;stroke:#015697;stroke-width:0.17px;}.cls-4{fill:#706f6e;}</style></defs><title>logo</title><g id="Grupo_2" data-name="Grupo 2"><path id="Trazado_1" data-name="Trazado 1" class="cls-1" d="M144.7,382.44a38.66,38.66,0,1,0,38.66,38.66h0A38.8,38.8,0,0,0,144.7,382.44ZM111.62,421.1a33.2,33.2,0,0,1,29.77-32.91,103,103,0,0,0-18.28,36.22,116.35,116.35,0,0,0-3,13.06V438h0c-.18,1.57-.35,3-.52,4.35A31.43,31.43,0,0,1,111.62,421.1Zm13.58,26.47V446a52.62,52.62,0,0,1,3.66-18.63c4.7-12.19,11.66-19,15.84-19,4.35,0,11.32,6.79,16,19A52.62,52.62,0,0,1,164.38,446v1.4a33.69,33.69,0,0,1-19.68,6.44A30.41,30.41,0,0,1,125.2,447.57Zm44.58-5.05a60.57,60.57,0,0,0-3.84-16.89c-5-13.41-13.58-22.64-21.24-22.64h0a13.73,13.73,0,0,0-8.18,3.31,88.63,88.63,0,0,1,12.36-17.94,33.24,33.24,0,0,1,28.91,32.74,34.56,34.56,0,0,1-8,21.42Z" transform="translate(-106.04 -382.44)"/><path id="Trazado_2" data-name="Trazado 2" class="cls-2" d="M119.63,442.52" transform="translate(-106.04 -382.44)"/><path id="Trazado_3" data-name="Trazado 3" class="cls-3" d="M119.8,444.44a2.23,2.23,0,0,0,1.92-1.92h0l.52-4.18v-.52a104.14,104.14,0,0,1,3-12.71A100.42,100.42,0,0,1,141.92,392a8.28,8.28,0,0,0,1.56-3.31,3.12,3.12,0,0,0,0-1.91,8.32,8.32,0,0,1-.87,1.74c-.52.7-1.39,1.91-2.61,3.48-7,9.23-16,26.12-19,49.8A2.25,2.25,0,0,1,119.8,444.44Z" transform="translate(-106.04 -382.44)"/><path id="Trazado_4" data-name="Trazado 4" class="cls-3" d="M163.85,449.49a35.67,35.67,0,0,1-20.37,6.26,36.32,36.32,0,0,1-19.33-5.57,35.44,35.44,0,0,0,20.73,6.62,34.83,34.83,0,0,0,20.54-6.62,3.64,3.64,0,0,0,1.57-1.74,9,9,0,0,0,.17-2.26,54.6,54.6,0,0,0-3.83-19.68,53.72,53.72,0,0,0-3.31-7.14,59.77,59.77,0,0,1,2.79,6.79,57.62,57.62,0,0,1,3.31,19.68A4.83,4.83,0,0,1,163.85,449.49Z" transform="translate(-106.04 -382.44)"/><path id="Trazado_5" data-name="Trazado 5" class="cls-3" d="M141,404.91c-2.61.87-4.52,3.13-4.7,3.13,0,0,2.79-2.61,8.19-2.44,3,0,6.79,2.09,10.62,6.62-3.48-4.88-7.31-7.66-11.32-7.84h0A9.51,9.51,0,0,0,141,404.91Z" transform="translate(-106.04 -382.44)"/><g id="Grupo_1" data-name="Grupo 1"><path id="Trazado_6" data-name="Trazado 6" class="cls-3" d="M144.88,385.06a36.44,36.44,0,0,1,24,8.88A36.4,36.4,0,0,0,144,384c-20,0-36.22,16-36.22,35.7a34,34,0,0,0,3.49,15.15,35.91,35.91,0,0,1-2.79-13.76A36.31,36.31,0,0,1,144.88,385.06Z" transform="translate(-106.04 -382.44)"/></g><path id="Trazado_7" data-name="Trazado 7" class="cls-3" d="M173.43,440.78c-2.43,3.83-3.3,3.66-4.87,3.83a4.63,4.63,0,0,0,4.35-1.57,35.78,35.78,0,0,0,1.22-42.14,35.48,35.48,0,0,1,5.4,19A37.63,37.63,0,0,1,173.43,440.78Z" transform="translate(-106.04 -382.44)"/></g><path id="Trazado_8" data-name="Trazado 8" class="cls-1" d="M241.35,403.69H223.93v12H220.1v-25.6h3.83v10.27h17.42V390.11h3.83v25.6h-3.83Z" transform="translate(-106.04 -382.44)"/><path id="Trazado_9" data-name="Trazado 9" class="cls-1" d="M251.1,390.11h3.83v25.6H251.1Z" transform="translate(-106.04 -382.44)"/><path id="Trazado_10" data-name="Trazado 10" class="cls-1" d="M264.68,401.6v-8.19h10.8c3,0,4.53,1.57,4.53,4,0,1.74-.87,4-4.7,4l-10.62.18Zm-3.83,14.28h3.83v-10.8h9.93c3.13,0,4.7,1.39,4.87,5.92.18,3.13.18,4.18.87,4.87h4c-.87-1-1.05-2.26-1.22-7-.17-3-1.39-5.05-3.66-5.4h0a6.09,6.09,0,0,0,4.36-6.27c0-3.31-1.92-6.79-7-6.79H261Z" transform="translate(-106.04 -382.44)"/><path id="Trazado_11" data-name="Trazado 11" class="cls-1" d="M289.58,407.34c0,4.53,4.35,5.75,8.19,5.75,4,0,7-1.57,7-4.35,0-2.27-1.74-3.31-4.7-3.83l-5.92-.87c-3.13-.53-7.66-1.75-7.66-6.8,0-4.7,3.65-7.83,10.27-7.83,5,0,10.62,1.91,11,8h-3.83c-.35-1.92-1.57-4.53-7.66-4.53-2.79,0-5.92,1.22-5.92,4.18,0,1.57,1,2.79,4.18,3.31l6.27,1c2.09.35,7.66,1.4,7.66,6.62,0,6.44-5.92,8.36-11,8.36-5.75,0-11.84-2.09-11.84-9.06Z" transform="translate(-106.04 -382.44)"/><path id="Trazado_12" data-name="Trazado 12" class="cls-1" d="M332.77,399.33c-.53-3.48-3.31-6.61-8.71-6.61-6.1,0-9.93,3.48-9.93,10.45,0,4.87,2.62,9.75,9.76,9.75,4.52,0,7.83-2.09,8.88-7.14h3.83c-.52,5.74-5.57,10.45-12.89,10.45-6.44,0-13.41-3.49-13.41-13.59,0-7.48,4.7-13.41,13.41-13.41,5.05,0,12.19,2.27,12.89,9.93h-3.83Z" transform="translate(-106.04 -382.44)"/><path id="Trazado_13" data-name="Trazado 13" class="cls-1" d="M361.85,403.69H344.43v12H340.6v-25.6h3.83v10.27h17.42V390.11h3.83v25.6h-3.83Z" transform="translate(-106.04 -382.44)"/><path id="Trazado_14" data-name="Trazado 14" class="cls-1" d="M396.68,390.11h5.22v25.6h-3.83V394.63h0l-9.92,21.25h-3.49L374.74,395h0v20.73H370.9v-25.6h5.4l10.1,21.24Z" transform="translate(-106.04 -382.44)"/><path id="Trazado_15" data-name="Trazado 15" class="cls-1" d="M423,405.08h-9.75l4.87-11.32Zm4.7,10.8H432l-11.49-25.6H416l-11.66,25.6h4l3.31-7.49h12.54Z" transform="translate(-106.04 -382.44)"/><path id="Trazado_16" data-name="Trazado 16" class="cls-1" d="M438.47,395.51h0v20.37h-3.83V390.11H439l16.55,20.37h0V390.11h3.83v25.6H455Z" transform="translate(-106.04 -382.44)"/><path id="Trazado_17" data-name="Trazado 17" class="cls-1" d="M468.24,395.51h0v20.37h-3.83V390.11h4.36l16.54,20.37h0V390.11h3.83v25.6h-4.35Z" transform="translate(-106.04 -382.44)"/><path id="Trazado_18" data-name="Trazado 18" class="cls-4" d="M238.73,441H229l4.88-11.32Zm4.71,10.63h4.35L236.12,426h-4.35l-11.49,25.6h4l3.31-7.49h12.54Z" transform="translate(-106.04 -382.44)"/><path id="Trazado_19" data-name="Trazado 19" class="cls-4" d="M251.1,426h3.83v16.37c0,4.7,3.13,6.61,7.84,6.61s7.83-1.91,7.83-6.61V426h3.83v15.84c0,6.79-3.83,10.28-11.49,10.28-7.84,0-11.67-3.49-11.67-10.28Z" transform="translate(-106.04 -382.44)"/><path id="Trazado_20" data-name="Trazado 20" class="cls-4" d="M287.67,429.29h-9.76V426h23.16v3.31h-9.75v22.29h-3.83V429.29Z" transform="translate(-106.04 -382.44)"/><path id="Trazado_21" data-name="Trazado 21" class="cls-4" d="M328.07,438.86c0,6.79-4.53,10.1-10.45,10.1s-10.45-3.31-10.45-10.1,4.53-10.1,10.45-10.1S328.07,432.07,328.07,438.86Zm-24.73,0c0,6.62,4,13.41,14.28,13.41s14.28-7,14.28-13.41c0-6.61-4-13.41-14.28-13.41S303.34,432.25,303.34,438.86Z" transform="translate(-106.04 -382.44)"/><path id="Trazado_22" data-name="Trazado 22" class="cls-4" d="M362.72,426h5.22v25.6h-3.83V430.51h0l-9.92,21.24h-3.31L341,431h0v20.72h-3.83V426h5.4l10.1,21.24Z" transform="translate(-106.04 -382.44)"/><path id="Trazado_23" data-name="Trazado 23" class="cls-4" d="M397.55,438.86c0,6.79-4.53,10.1-10.45,10.1s-10.45-3.31-10.45-10.1,4.53-10.1,10.45-10.1S397.55,432.07,397.55,438.86Zm-24.56,0c0,6.62,4,13.41,14.28,13.41s14.28-7,14.28-13.41c0-6.61-4-13.41-14.28-13.41C376.82,425.45,373,432.25,373,438.86Z" transform="translate(-106.04 -382.44)"/><path id="Trazado_24" data-name="Trazado 24" class="cls-4" d="M413.39,429.29h-9.75V426H426.8v3.31h-9.75v22.29h-3.83l.17-22.29Z" transform="translate(-106.04 -382.44)"/><path id="Trazado_25" data-name="Trazado 25" class="cls-4" d="M430.81,426h3.83v25.6h-3.83Z" transform="translate(-106.04 -382.44)"/><path id="Trazado_26" data-name="Trazado 26" class="cls-4" d="M460.93,426h4l-11.15,25.6h-4L438.29,426h4.36l9.23,21.59Z" transform="translate(-106.04 -382.44)"/><path id="Trazado_27" data-name="Trazado 27" class="cls-4" d="M468.24,426h20.55v3.31H472.08v7.49h16.19v3.3H472.08v8.36h17.06v3.3h-20.9Z" transform="translate(-106.04 -382.44)"/></svg>