<svg id="Capa_1" data-name="Capa 1" xmlns="http://www.w3.org/2000/svg" viewBox="0 0 317.04 266.37"><defs><style>.cls-1{fill:#92d2f2;}.cls-2{fill:#fff;}.cls-3{fill:#334b5e;}.cls-4{fill:#e6e9ef;}.cls-5{fill:#adb4bb;}.cls-6{fill:#56c1ec;}</style></defs><title>machine</title><path class="cls-1" d="M259.94,384.05a9,9,0,0,1,0,7.92Z" transform="translate(-259.94 -256.36)"/><path class="cls-1" d="M259.94,399.89a9,9,0,0,1,0,7.92Z" transform="translate(-259.94 -256.36)"/><path class="cls-2" d="M454.07,403c24.82,2.59,41.94,18.23,46.27,42.45a51,51,0,0,1,.45,8.66c0,11.46,0,22.92,0,34.38-1.09,1.71-2.83,1.75-4.56,1.76q-44.65.1-89.31,0c-1.72,0-3.47,0-4.56-1.75-.52-15.24-1-30.47.69-45.67-1.45-1.69-.74-3.5-.23-5.25,5.49-18.81,24.08-34.07,43.65-35.87C449.1,401.43,451.71,401.42,454.07,403Z" transform="translate(-259.94 -256.36)"/><path class="cls-3" d="M454.07,403c-21.8-.09-37.68,9.56-47.51,29A39.31,39.31,0,0,0,403,442.79c-1.47.86-1.77-.54-2.34-1.26-15-19.08-30.14-38-44.93-57.29-13-17-8.77-39.32,9.21-49.83,6.26-3.65,13.16-4.37,20.24-4.12,2.07-1.05,4.08-.47,6.12.16,6.75,2.1,12,6.38,16.59,11.55,3.93,4.41,7.36,9.23,11,13.88.8,1,1.64,2.11,1.21,3.57Q436,379.6,451.84,399.74C452.65,400.76,453.33,401.88,454.07,403Z" transform="translate(-259.94 -256.36)"/><path class="cls-2" d="M420.11,359.45c-4-5-8.08-10-12-15.13a36,36,0,0,0-22.93-14c1.48-3.05,4.3-4.9,6.62-7.15C412.54,303,433.18,282.83,454.17,263a23.24,23.24,0,0,1,39,12c.74,3.4.37,6.82.21,10.24,1.27,3.22-.54,5.66-2.06,8.18-3.15,4.28-7.38,7.53-11,11.31-2.31,2-4,4.76-7.21,5.5L431.39,350c-2.57,2.46-5.08,5-7.67,7.41C422.7,358.35,421.83,359.67,420.11,359.45Z" transform="translate(-259.94 -256.36)"/><path class="cls-2" d="M527.75,513.1c-.11,9.63-.11,9.63-9.79,9.63H380.39c-1.84,0-3.69-.07-5.53-.11,0-1.32,0-2.63,0-4,0-9.81,4.44-14.53,14.21-15.18,1.43-1.49,3.29-1.5,5.15-1.5q57.36,0,114.71,0c1.86,0,3.73,0,5.14,1.5C520.86,503.49,525.65,506.38,527.75,513.1Z" transform="translate(-259.94 -256.36)"/><path class="cls-2" d="M550.1,341c12.47-2.31,21.6,2.91,24.75,15,3.95,15.18,1.86,30.28-1.9,45.24-.43,1.71-1.49,1.89-2.91,1.89-9.88,0-19.75-.09-29.63,0-2.74,0-2.81-1.86-3.24-3.57a104.61,104.61,0,0,1-2.54-39.9c-1.88-3.33.28-6.06,1.34-8.95a24.06,24.06,0,0,1,5.5-7.29C544.09,341.76,546.54,339.44,550.1,341Z" transform="translate(-259.94 -256.36)"/><path class="cls-3" d="M514.05,503.49q-45.88,0-91.77.1c-11.08,0-22.15-.06-33.23-.1-.45-5.55-.29-10.83,5.58-13.89,2.47-1.28,5.11-.9,7.69-1.14h98.43c5,0,9.78.65,12.39,5.76C514.64,497.15,514,500.37,514.05,503.49Z" transform="translate(-259.94 -256.36)"/><path class="cls-3" d="M537.15,350.93c-.76,2.95-2.31,5.67-2.52,8.78-1.41-.23-2.25-1.33-3.26-2.14q-29.16-23.67-58.29-47.36l6.24-6c2-.81,3.22.75,4.47,1.75,17.1,13.74,34,27.74,51.08,41.48C536,348.33,537.07,349.31,537.15,350.93Z" transform="translate(-259.94 -256.36)"/><path class="cls-3" d="M550.1,341c-3,.37-5.47,1.9-7.94,3.46-1.79.1-2.91-1.08-4-2.21-14.7-15.24-30.48-29.38-45.29-44.51-1.32-1.35-3.23-2.5-2.61-4.93a31.27,31.27,0,0,0,3.14-7.59c1.49-.24,2,1.09,2.76,1.85q25.9,25.37,51.74,50.82C548.8,338.78,550,339.49,550.1,341Z" transform="translate(-259.94 -256.36)"/><path class="cls-3" d="M558.2,431.55c.16-3.67-.77-7.72,3.34-11,2.64-2.12,1.42-7.12-1.32-9.51a7.67,7.67,0,0,0-10.1.17c-2.78,2.59-3.67,7.63-.81,9.89,3.49,2.77,2.94,6.06,3,9.5,0,1.71,0,3.43,0,5.14,0,5.16-.13,5.22-5.3,4.86-1.51-.11-2.43-.44-2.74-2.12-2-10.65-3.18-21.33-1.67-32.17.31-2.27,1.35-2.78,3.37-2.75,6.19.07,12.39.1,18.57,0,2,0,2.8.75,3.12,2.61,1.88,10.95.79,21.78-1.47,32.52-.74,3.5-3.95,1.53-6,1.81-2.28.31-1.91-1.61-1.94-3C558.16,435.62,558.2,433.78,558.2,431.55Z" transform="translate(-259.94 -256.36)"/><path class="cls-4" d="M451.25,462.46c-5.33,0-10.83-5.39-10.72-10.51a11.35,11.35,0,0,1,10.86-10.88,11.14,11.14,0,0,1,11.11,10.6C462.59,457.47,457.4,462.45,451.25,462.46Z" transform="translate(-259.94 -256.36)"/><path class="cls-5" d="M400.26,365.07a18.71,18.71,0,1,1-18.66-19A18.79,18.79,0,0,1,400.26,365.07Z" transform="translate(-259.94 -256.36)"/><path class="cls-6" d="M490.26,292.81c1.37,2.3,3.52,3.87,5.38,5.7q23.22,23,46.52,45.95l-5,6.47-55.93-45.35c-.61-.49-1.27-.93-1.9-1.4Z" transform="translate(-259.94 -256.36)"/><path class="cls-4" d="M483.27,281.68a12.89,12.89,0,0,1-13.1,12.88c-7.32,0-13.76-6.33-13.72-13.48,0-6.86,6.83-13.55,13.55-13.34A14,14,0,0,1,483.27,281.68Z" transform="translate(-259.94 -256.36)"/><path class="cls-4" d="M562.45,364.92A7.39,7.39,0,0,1,555,372c-3.73,0-6.9-3.58-6.77-7.67s3.6-7.37,7.37-7.12A7.46,7.46,0,0,1,562.45,364.92Z" transform="translate(-259.94 -256.36)"/></svg>